<svg width="116" height="37" viewBox="0 0 116 37" fill="none" xmlns="http://www.w3.org/2000/svg">
<path d="M8.61875 22.5716L6.51869 22.632C3.23272 22.7263 0.613738 23.6594 0.644341 24.7248L0.938862 34.9783C0.961181 35.7553 2.41441 36.4191 4.64651 36.6516C6.87861 36.8842 9.41879 36.6509 11.1077 36.0492L21.2899 32.4215C43.1318 38.729 77.9921 37.7036 99.3108 30.1003C120.728 22.4701 120.401 11.1111 98.5819 4.72286C76.7623 -1.66541 41.7285 -0.659098 20.3116 6.9711C17.252 8.06113 17.2987 9.68727 20.4158 10.5999C23.5329 11.5125 28.5483 11.3684 31.6079 10.2784C46.9056 4.82826 71.9334 4.10936 87.5188 8.67241C103.104 13.2355 103.337 21.3502 88.0395 26.8003C72.8151 32.2243 47.9857 32.9615 32.3779 28.4793L42.4375 24.8873C44.1264 24.2856 44.5968 23.4463 43.662 22.7516C42.7271 22.0569 40.5396 21.6547 38.1431 21.7236L8.61875 22.5716Z" fill="black"/>
</svg>
